<?xml version="1.0" encoding="utf-8"?><svg version="1.1" id="Layer_1" xmlns="http://www.w3.org/2000/svg" xmlns:xlink="http://www.w3.org/1999/xlink" x="0px" y="0px" fill="#58bba6" viewBox="0 0 122.88 96.76" style="enable-background:new 0 0 122.88 96.76" xml:space="preserve"><style type="text/css">.st0{fill-rule:evenodd;clip-rule:evenodd;}</style><g><path class="st0" d="M89.53,84.61c-0.27,0.06-0.55,0.06-0.83,0H66.36v8.06h23.49v-8.06H89.53L89.53,84.61z M58.15,22.35 c-0.36-0.24-0.46-0.72-0.22-1.08c0.24-0.36,0.72-0.46,1.08-0.22c1.66,1.11,3.32,1.09,4.98,0c0.36-0.24,0.85-0.13,1.08,0.23 c0.24,0.36,0.13,0.85-0.23,1.08C62.62,23.81,60.38,23.84,58.15,22.35L58.15,22.35L58.15,22.35z M55.42,15.36 c-0.37,0.22-0.85,0.09-1.07-0.28c-0.22-0.37-0.09-0.85,0.28-1.07c0.7-0.4,1.4-0.58,2.11-0.56c0.69,0.01,1.37,0.21,2.03,0.54 c0.39,0.19,0.55,0.66,0.36,1.05c-0.19,0.39-0.66,0.55-1.05,0.35c-0.47-0.23-0.93-0.37-1.37-0.38C56.28,15,55.85,15.11,55.42,15.36 L55.42,15.36L55.42,15.36z M65.21,15.36c-0.37,0.22-0.85,0.09-1.07-0.28c-0.22-0.37-0.09-0.85,0.28-1.07 c0.7-0.4,1.4-0.58,2.11-0.56c0.69,0.01,1.37,0.21,2.03,0.54c0.39,0.19,0.55,0.66,0.35,1.05c-0.19,0.39-0.66,0.55-1.05,0.35 c-0.47-0.23-0.93-0.37-1.37-0.38C66.08,15,65.65,15.11,65.21,15.36L65.21,15.36L65.21,15.36z M71.79,18.98 c1.99,0.99,3.83,2.01,5.62,3.09c1.84,1.11,3.63,2.29,5.44,3.57c0.03,0.02,0.06,0.05,0.09,0.08c1.31,1.1,2.42,2.46,3.25,4.23 c1.98,4.25,1.54,4.14,1.54,8.7c0,0.43-0.35,0.78-0.78,0.78c-16.24,0-34.19,0-51.02,0c-0.43,0-0.78-0.35-0.78-0.78 c0-4.56-0.45-4.45,1.54-8.7c0.83-1.77,1.94-3.13,3.25-4.23c0.03-0.03,0.06-0.05,0.09-0.08c1.81-1.28,3.63-2.49,5.53-3.65 c1.81-1.11,3.67-2.15,5.61-3.13l-0.03-0.45c-0.94-0.62-1.5-1.54-1.68-2.6c-0.18-1.07,0.03-2.28,0.63-3.45l0.03-0.06 c-0.69-1.92-0.7-3.7-0.08-5.36c0.65-1.73,1.98-3.29,3.93-4.7C53.98,2.22,54,2.2,54.02,2.19l0,0c2.51-1.5,5.03-2.21,7.56-2.19 c2.52,0.02,5.03,0.77,7.53,2.18l0.01,0l0,0c1.78,1.02,3.13,2.3,3.9,3.92c0.75,1.59,0.91,3.48,0.33,5.75 c0.32,1.33,0.46,2.57,0.27,3.68c-0.2,1.14-0.74,2.12-1.76,2.85L71.79,18.98L71.79,18.98L71.79,18.98z M54.63,25.8 c0.95,3.18,3.14,5.67,6.93,7.18c3.26-0.95,5.86-3.81,7.25-7.4l-0.14-0.14c0.04,0.04-1.46,1.06-2.29,1.44 c-1.43,0.66-3.03,1.03-4.63,1.09c-1.61,0.06-3.23-0.2-4.71-0.79C56.18,26.84,55.36,26.38,54.63,25.8L54.63,25.8L54.63,25.8z M55.76,2.99c-0.02,1.95-0.35,3.74-0.98,5.37c-0.67,1.73-1.69,3.26-3.06,4.56c-0.08,0.08-0.18,0.14-0.28,0.17 c-0.43,0.86-0.58,1.71-0.46,2.44c0.11,0.68,0.48,1.27,1.11,1.63c0.02,0.01,0.07,0.04,0.14,0.07l0,0c0.23,0.12,0.4,0.35,0.42,0.63 l0.1,1.34c0.41,3.41,2.39,5.54,4.87,6.54c1.27,0.51,2.68,0.73,4.08,0.68c1.4-0.05,2.8-0.37,4.04-0.95c2.44-1.13,4.29-3.25,4.46-6.2 c0-0.02,0-0.05,0-0.07l0.15-1.37h0c0.03-0.23,0.15-0.45,0.37-0.57c0.81-0.49,1.22-1.19,1.37-2.01c0.14-0.77,0.06-1.67-0.15-2.64 c-0.1,0-0.2-0.02-0.3-0.07c-1.45-0.64-2.61-2.03-3.4-3.79c-0.78-1.74-1.22-3.85-1.23-5.94C65.19,2,63.38,1.56,61.57,1.54 C59.64,1.53,57.7,2,55.76,2.99L55.76,2.99L55.76,2.99z M66.41,80.53h21.91c1.76-1.75,3.69-3.57,5.65-5.42 c4.11-3.89,8.4-7.95,12.81-13.03c5.04-5.81,5.58-7.82,7.11-13.51c0.29-1.07,0.61-2.27,1.03-3.76l2.62-9.21l0.03-0.1 c1.4-4.1,1.51-6.81,0.93-8.37c-0.18-0.48-0.41-0.8-0.68-0.97c-0.21-0.14-0.49-0.19-0.78-0.16c-0.68,0.07-1.45,0.5-2.15,1.27 l-7.78,18.53c-0.07,0.17-0.17,0.33-0.28,0.47c-0.46,0.83-1.08,1.64-1.88,2.41l-13.8,15.39c-0.75,0.84-2.04,0.91-2.87,0.16 c-0.84-0.75-0.91-2.04-0.16-2.87l13.81-15.39c0.06-0.07,0.12-0.14,0.19-0.2c1.43-1.36,1.88-2.83,1.63-3.9 c-0.08-0.33-0.22-0.61-0.42-0.8c-0.19-0.17-0.44-0.29-0.75-0.32v0c-1.23-0.13-3.04,0.78-5.25,3.39l0,0 c-0.06,0.07-0.13,0.14-0.2,0.21l-5.35,4.72l-0.03,0.03c-5.79,5.48-8.28,6.78-12.82,9.15c-0.95,0.5-1.99,1.04-3.28,1.74 c-0.51,0.28-1.01,0.62-1.5,0.99c-0.52,0.4-1.02,0.81-1.49,1.21c-2.4,2.02-3.66,3.66-4.38,5.47c-0.75,1.88-1.02,4.17-1.39,7.31 c-0.15,1.27-0.26,2.52-0.35,3.77C66.47,79.34,66.44,79.94,66.41,80.53L66.41,80.53z M56.47,80.53H34.55 c-1.76-1.75-3.69-3.57-5.65-5.42c-4.11-3.89-8.4-7.95-12.81-13.03c-5.04-5.81-5.58-7.82-7.11-13.51C8.7,47.5,8.38,46.3,7.96,44.81 L5.34,35.6l-0.03-0.1c-1.4-4.1-1.51-6.81-0.93-8.37c0.18-0.48,0.41-0.8,0.68-0.97c0.21-0.14,0.49-0.19,0.78-0.16 C6.53,26.06,7.3,26.5,8,27.26l7.78,18.53c0.07,0.17,0.17,0.33,0.28,0.47c0.46,0.83,1.08,1.64,1.88,2.41l13.8,15.39 c0.75,0.84,2.04,0.91,2.87,0.16c0.84-0.75,0.91-2.04,0.16-2.87L20.96,45.95c-0.06-0.07-0.12-0.14-0.19-0.2 c-1.43-1.36-1.88-2.83-1.63-3.9c0.08-0.33,0.22-0.61,0.42-0.8c0.19-0.17,0.44-0.29,0.75-0.32v0c1.23-0.13,3.05,0.78,5.25,3.39l0,0 c0.06,0.07,0.13,0.14,0.2,0.21l5.35,4.72l0.03,0.03c5.79,5.48,8.28,6.78,12.82,9.15c0.95,0.5,1.99,1.04,3.28,1.74 c0.51,0.28,1.01,0.62,1.5,0.99c0.52,0.4,1.02,0.81,1.49,1.21c2.4,2.02,3.66,3.66,4.38,5.47c0.75,1.88,1.02,4.17,1.39,7.31 c0.15,1.27,0.26,2.52,0.35,3.77C56.41,79.34,56.44,79.94,56.47,80.53L56.47,80.53z M33.35,84.61c0.27,0.06,0.55,0.06,0.83,0h22.34 v8.06H33.03v-8.06H33.35L33.35,84.61z M29.45,81.23c-0.31,0.36-0.5,0.83-0.5,1.34v12.14c0,1.13,0.92,2.04,2.04,2.04h27.58 c1.13,0,2.04-0.92,2.04-2.04V82.46c0-1.3-0.08-2.7-0.17-4c-0.09-1.33-0.21-2.65-0.36-3.96c-0.4-3.43-0.7-5.94-1.66-8.35 c-0.99-2.47-2.58-4.6-5.53-7.09c-0.54-0.46-1.09-0.92-1.67-1.35c-0.61-0.46-1.27-0.9-2.01-1.31c-1.2-0.65-2.32-1.24-3.34-1.78 c-4.2-2.2-6.5-3.4-11.91-8.52c-0.04-0.04-0.09-0.08-0.13-0.11l-5.22-4.61c-3.19-3.73-6.31-4.97-8.7-4.71l-0.01,0v0 c-1.17,0.12-2.17,0.58-2.97,1.28L11.65,25.4l-0.01,0c-0.08-0.18-0.18-0.35-0.31-0.51c-1.46-1.75-3.31-2.77-5.08-2.95 c-1.21-0.12-2.38,0.14-3.4,0.8c-0.97,0.63-1.77,1.61-2.27,2.96c-0.88,2.35-0.86,6,0.86,11.05l2.6,9.15 c0.38,1.32,0.71,2.59,1.02,3.71c1.7,6.35,2.3,8.6,7.97,15.12c4.49,5.17,8.88,9.33,13.1,13.32C27.23,79.11,28.33,80.15,29.45,81.23 L29.45,81.23z M93.43,81.23c0.31,0.36,0.5,0.83,0.5,1.34v12.14c0,1.13-0.91,2.04-2.04,2.04H64.32c-1.13,0-2.04-0.92-2.04-2.04 V82.46c0-0.07,0-0.15,0.01-0.22c0.03-1.31,0.08-2.58,0.16-3.78c0.09-1.33,0.21-2.65,0.36-3.96c0.4-3.43,0.7-5.94,1.66-8.35 c0.99-2.47,2.58-4.6,5.53-7.09c0.54-0.46,1.09-0.92,1.67-1.35c0.61-0.46,1.27-0.9,2.01-1.31c1.2-0.65,2.32-1.24,3.34-1.78 c4.2-2.2,6.5-3.4,11.91-8.52c0.04-0.04,0.09-0.08,0.13-0.11l5.22-4.61c3.19-3.73,6.31-4.97,8.7-4.71l0.01,0v0 c1.17,0.12,2.17,0.58,2.97,1.28l5.27-12.56l0.01,0c0.08-0.18,0.18-0.35,0.31-0.51c1.46-1.75,3.31-2.77,5.08-2.95 c1.21-0.12,2.38,0.14,3.4,0.8c0.97,0.63,1.77,1.61,2.27,2.96c0.88,2.35,0.86,6-0.86,11.05l-2.6,9.15 c-0.38,1.32-0.71,2.59-1.02,3.71c-1.7,6.35-2.3,8.6-7.97,15.12c-4.49,5.17-8.88,9.33-13.1,13.32 C95.65,79.11,94.55,80.15,93.43,81.23L93.43,81.23z"/></g></svg>